<?xml version="1.0" encoding="iso-8859-1"?>
<!-- Uploaded to: SVG Repo, www.svgrepo.com, Generator: SVG Repo Mixer Tools -->
<svg height="800px" width="800px" version="1.1" id="Layer_1" xmlns="http://www.w3.org/2000/svg" xmlns:xlink="http://www.w3.org/1999/xlink" 
	 viewBox="0 0 392.663 392.663" xml:space="preserve">
<path style="fill:#FFFFFF;" d="M307.103,21.786H85.495c-18.036,0-32.711,14.675-32.711,32.711v283.539
	c0,18.036,14.675,32.711,32.711,32.711h221.543c18.036,0,32.711-14.675,32.711-32.711V54.562
	C339.814,36.461,325.139,21.786,307.103,21.786z"/>
<path style="fill:#194F82;" d="M307.103,0H85.495C55.434,0,30.998,24.501,30.998,54.562v283.539
	c0,30.061,24.501,54.562,54.562,54.562h221.543c30.061,0,54.562-24.501,54.562-54.562V54.562C361.6,24.501,337.164,0,307.103,0z
	 M339.814,337.972c0,18.036-14.675,32.711-32.711,32.711H85.495c-18.036,0-32.711-14.675-32.711-32.711V54.562
	c0-18.036,14.675-32.711,32.711-32.711h221.543c18.036,0,32.711,14.675,32.711,32.711v283.41H339.814z"/>
<path style="fill:#FFC10D;" d="M96.356,79.127h45.834c6.012,0,10.925,4.848,10.925,10.925c0,6.077-4.848,10.925-10.925,10.925H96.42
	v11.507h20.234c6.012,0,10.925,4.848,10.925,10.925c0,6.012-4.848,10.925-10.925,10.925H96.42v13.705h199.758V65.422H96.356V79.127z
	"/>
<path style="fill:#194F82;" d="M307.103,43.572H85.495c-6.012,0-10.925,4.848-10.925,10.925v104.275
	c0,6.012,4.848,10.925,10.925,10.925h221.543c6.012,0,10.925-4.848,10.925-10.925V54.497
	C318.028,48.549,313.115,43.572,307.103,43.572z M296.242,147.911H96.356v-13.705h20.234c6.012,0,10.925-4.848,10.925-10.925
	c0-6.012-4.848-10.925-10.925-10.925H96.356v-11.507h45.834c6.012,0,10.925-4.848,10.925-10.925c0-6.012-4.848-10.925-10.925-10.925
	H96.42V65.293h199.758v82.618H296.242z"/>
<polygon style="fill:#56ACE0;" points="118.271,213.333 96.356,213.333 96.356,235.119 118.271,235.119 "/>
<path style="fill:#194F82;" d="M118.271,191.547H96.485c-12.024,0-21.786,9.826-21.786,21.786v21.786
	c0,12.024,9.826,21.786,21.786,21.786h21.786c12.024,0,21.786-9.826,21.786-21.786v-21.786
	C140.057,201.309,130.23,191.547,118.271,191.547z M96.356,213.333h21.851v21.786H96.42v-21.786H96.356z"/>
<polygon style="fill:#56ACE0;" points="207.224,213.333 185.374,213.333 185.374,235.119 207.224,235.119 "/>
<path style="fill:#194F82;" d="M207.224,191.547h-21.786c-12.024,0-21.786,9.826-21.786,21.786v21.786
	c0,12.024,9.826,21.786,21.786,21.786h21.786c12.024,0,21.786-9.826,21.786-21.786v-21.786
	C229.01,201.309,219.248,191.547,207.224,191.547z M185.374,213.333h21.786v21.786h-21.786V213.333L185.374,213.333z"/>
<polygon style="fill:#56ACE0;" points="118.271,305.325 96.356,305.325 96.356,327.111 118.271,327.111 "/>
<path style="fill:#194F82;" d="M118.271,283.539H96.485c-12.024,0-21.786,9.826-21.786,21.786v21.786
	c0,12.024,9.826,21.786,21.786,21.786h21.786c12.024,0,21.786-9.826,21.786-21.786v-21.786
	C140.057,293.236,130.23,283.539,118.271,283.539z M96.356,305.325h21.851v21.786H96.42v-21.786H96.356z"/>
<polygon style="fill:#56ACE0;" points="207.224,305.325 185.374,305.325 185.374,327.111 207.224,327.111 "/>
<path style="fill:#194F82;" d="M207.224,283.539h-21.786c-12.024,0-21.786,9.826-21.786,21.786v21.786
	c0,12.024,9.826,21.786,21.786,21.786h21.786c12.024,0,21.786-9.826,21.786-21.786v-21.786
	C229.01,293.236,219.248,283.539,207.224,283.539z M185.374,305.325h21.786v21.786h-21.786V305.325L185.374,305.325z"/>
<polygon style="fill:#56ACE0;" points="296.113,213.333 274.327,213.333 274.327,327.111 296.242,327.111 "/>
<path style="fill:#194F82;" d="M296.113,191.547h-21.786c-12.024,0-21.786,9.826-21.786,21.786v113.842
	c0,12.024,9.826,21.786,21.786,21.786h21.786c12.024,0,21.786-9.826,21.786-21.786V213.333
	C318.028,201.309,308.202,191.547,296.113,191.547z M274.327,213.333h21.786v113.842h-21.786V213.333z"/>
</svg>