<svg id="Layer_1" viewBox="0 0 24 24" xmlns="http://www.w3.org/2000/svg" data-name="Layer 1"><path d="m6 12c3.314 0 6-2.686 6-6s-2.686-6-6-6-6 2.686-6 6 2.686 6 6 6zm-1.127-9.8h.327v-1.2h1.6v1.2h.2c1.201 0 2.189.925 2.291 2.1h-1.62c-.086-.289-.354-.5-.671-.5h-2.127c-.316 0-.573.257-.573.574 0 .272.194.509.461.562l2.792.559c1.013.202 1.747 1.099 1.747 2.131 0 1.199-.975 2.173-2.174 2.173h-.326v1.2h-1.6v-1.2h-.2c-1.201 0-2.189-.925-2.291-2.1h1.62c.086.289.354.5.671.5h2.126c.316 0 .574-.257.574-.574 0-.272-.194-.509-.462-.563l-2.791-.559c-1.013-.203-1.747-1.099-1.747-2.131 0-1.199.975-2.173 2.173-2.173zm12.127.3c0-1.381 1.119-2.5 2.5-2.5s2.5 1.119 2.5 2.5-1.119 2.5-2.5 2.5-2.5-1.119-2.5-2.5zm6.239 14.51s-6.226 6.99-6.226 6.99h-2.679l7.409-8.315s0 0 .001-.001c.367-.412.334-1.048-.073-1.42-.199-.181-.456-.264-.728-.262-.27.013-.519.129-.699.329l-4.434 4.871c-.387 1.066-1.335 1.884-2.507 2.051l-5.161.737-.283-1.979 5.161-.737c.559-.08.98-.566.98-1.131 0-.63-.513-1.142-1.143-1.142h-9.857c-.552 0-1 .449-1 1v6h-2v-6c0-1.654 1.346-3 3-3h9.857c1.14 0 2.131.617 2.682 1.528l3.224-3.543c.54-.595 1.281-.944 2.085-.981.812-.045 1.574.241 2.169.782 1.212 1.106 1.311 3 .221 4.225zm.761-8.51v2.975c-.593-.522-1.274-.907-2-1.155v-1.82c0-.276-.224-.5-.5-.5h-4c-.276 0-.5.224-.5.5v2.396c-.478.299-.921.671-1.304 1.104h-.696v-3.5c0-1.381 1.119-2.5 2.5-2.5h4c1.381 0 2.5 1.119 2.5 2.5z"/></svg>