<?xml version="1.0" encoding="UTF-8"?>
<svg xmlns="http://www.w3.org/2000/svg" id="Layer_1" data-name="Layer 1" viewBox="0 0 24 24">
  <path d="M22.567,7.095c-.035-.171-.114-.33-.229-.461l-3.431-3.893c-.365-.414-.997-.453-1.411-.089-.414,.365-.454,.997-.089,1.412l.318,.361v3.55c0,1.215,.987,2.203,2.201,2.203h.98c.054,.819,.093,1.819,.093,2.995,0,1.363-.248,3.973-.354,5.088-.031,.325-.052,.55-.057,.629-.033,.537-.394,1.081-1.019,1.081-.561,0-1.017-.457-1.017-1.019v-.495c0-1.541-1.16-2.815-2.651-2.996,.071-1.048,.118-2.211,.118-3.453,0-4.957-.738-8.597-.77-8.749-.078-.381-.371-.682-.749-.771-.113-.027-2.81-.655-5.992-.655s-5.878,.628-5.991,.655c-.38,.089-.673,.391-.75,.773-.032,.154-.77,3.832-.77,8.747,0,4.956,.738,8.596,.77,8.749,.079,.382,.373,.684,.753,.772,.113,.026,2.808,.644,5.988,.644s5.874-.618,5.987-.644c.382-.088,.676-.391,.754-.774,.018-.088,.268-1.331,.478-3.298,.469,.09,.825,.504,.825,1.001v.495c0,1.665,1.354,3.019,3.017,3.019,1.615,0,2.911-1.271,3.015-2.956,.004-.07,.024-.272,.052-.564,.117-1.24,.362-3.819,.362-5.277,0-3.916-.415-5.991-.433-6.077ZM8.511,3.83c2.069,0,3.954,.295,4.897,.472,.13,.783,.342,2.236,.479,4.104H3.135c.138-1.86,.349-3.318,.479-4.104,.943-.177,2.825-.472,4.896-.472Zm0,16.341c-2.069,0-3.953-.29-4.898-.464-.205-1.234-.612-4.129-.612-7.701,0-.55,.01-1.084,.027-1.6H13.995c.017,.515,.027,1.05,.027,1.6,0,3.537-.408,6.457-.614,7.701-.944,.174-2.825,.464-4.896,.464Z"/>
</svg>
