<svg id="Layer_1" viewBox="0 0 24 24" xmlns="http://www.w3.org/2000/svg" data-name="Layer 1"><path d="m16.994 15.832c0 .829 0 3.198-1.987 4.334-.004.642-.02 1.239-.043 1.846-.019.551-.494 1-1.034.962-.551-.02-.982-.482-.962-1.034.028-.775.048-1.534.04-2.402-.004-.425.262-.807.663-.949.688-.246 1.325-.75 1.325-2.757 0-.735-.084-1.267-.222-1.657-.118 1.319-.494 2.795-2.778 2.806-2.346-.013-2.682-1.574-2.776-2.791-.135.389-.217.917-.217 1.642 0 2.117.693 2.536 1.343 2.762.405.141.675.527.669.956-.011.866.016 1.641.043 2.416.021.564-.435 1.034-.999 1.033-.536 0-.979-.424-.998-.965-.021-.605-.041-1.211-.046-1.855-2.01-1.132-2.01-3.514-2.01-4.348 0-.933 0-3.772 2.77-4.679.295-.095.618-.05.874.124.257.176.417.459.434.77.046.829.092 1.622.136 2.069.069.868.122.868.776.868.651 0 .69 0 .777-.872.044-.448.103-1.241.159-2.071.02-.308.183-.589.439-.762s.576-.217.872-.119c2.75.914 2.75 3.743 2.75 4.672zm5.993-4.844c0 4.071-.987 8.065-1.029 8.233-.082.332-.329.598-.653.705-.03.011-.752.249-2.141.494-.531.096-1.063-.265-1.157-.812-.095-.543.268-1.061.812-1.157.576-.1 1.02-.2 1.33-.276.263-1.216.841-4.224.841-7.187 0-.685-.033-1.332-.084-1.998h-17.812c-.051.667-.084 1.313-.084 1.998 0 2.97.577 5.972.841 7.187.309.076.753.176 1.33.276.543.096.906.614.811 1.157s-.612.9-1.157.812c-1.389-.245-2.111-.483-2.141-.494-.324-.108-.57-.374-.653-.705-.042-.168-1.029-4.161-1.029-8.233s.987-8.064 1.029-8.232c.083-.332.329-.598.653-.705.129-.043 3.22-1.051 9.306-1.051s9.177 1.008 9.306 1.051c.324.107.571.374.653.705.042.168 1.029 4.161 1.029 8.233zm-2.292-3.995c-.183-1.367-.408-2.549-.546-3.191-1.078-.264-3.81-.805-8.149-.805s-7.069.54-8.149.805c-.139.641-.363 1.824-.546 3.191zm-14.688-2.996c-.552 0-.999.446-.999.999s.447.999.999.999.999-.447.999-.999-.447-.999-.999-.999zm2.996 0c-.552 0-.999.446-.999.999s.447.999.999.999.999-.447.999-.999-.447-.999-.999-.999z"/></svg>