<?xml version="1.0" encoding="UTF-8"?>
<svg xmlns="http://www.w3.org/2000/svg" id="Layer_1" data-name="Layer 1" viewBox="0 0 24 24">
  <path d="m22,12h-.107c1.299-1.272,2.107-3.043,2.107-5,0-3.859-3.141-7-7-7s-7,3.141-7,7c0,1.056.236,2.059.657,2.958-4.498,2.014-6.192,6.789-6.57,10.101-.641-.532-1.087-1.247-1.087-2.035,0-1.848.478-2.817.983-3.845.477-.969,1.017-2.065,1.017-3.679,0-2.649-2.056-4.5-5-4.5v3c.469,0,2,.108,2,1.5,0,.915-.297,1.519-.708,2.354-.576,1.169-1.292,2.624-1.292,5.17,0,3.522,3.456,5.977,6.558,5.977h17.442v-3h-2v-9ZM13,3l2.028,1.521c.582-.331,1.255-.521,1.972-.521s1.39.19,1.972.521l2.028-1.521v4c0,2.205-1.795,4-4,4s-4-1.795-4-4V3Zm-2,12v3c1.654,0,3,1.346,3,3h-6.978c.117-1.688.86-7.039,5.561-8.574,1.206.983,2.744,1.574,4.417,1.574.695,0,1.366-.102,2-.292v7.292h-2c0-3.309-2.691-6-6-6ZM4.5,4.5l-2-1,2-1,1-2,1,2,2,1-2,1-1,2-1-2Z"/>
</svg>
