<?xml version="1.0" encoding="UTF-8"?>
<svg xmlns="http://www.w3.org/2000/svg" id="Layer_1" data-name="Layer 1" viewBox="0 0 24 24">
  <path d="M21.815,14.342c-.753-.587-1.718-.791-2.65-.555l-2.217,.572c-.374-1.581-5.056-5.332-10.087-5.64-3.232,0-5.861,2.627-5.861,5.856,0,2.521,1.607,4.753,4.016,5.559,2.803,.887,5.362,1.198,7.573,1.198,4.728,0,7.863-1.423,8.382-1.676,1.217-.44,2.029-1.592,2.029-2.891,0-.955-.432-1.838-1.185-2.425Zm-1.55,3.444c-.046,.015-6.286,3.089-14.63,.447-1.576-.527-2.635-1.997-2.635-3.657,0-2.126,1.732-3.856,3.8-3.858,4.408,.271,7.751,3.556,7.784,3.589,.023,.023,.586,.442,.493,1.055-.058,.381-.244,.713-.579,.903-.415,.234-.939,.188-1.305-.117l-2.147-1.784c-1.048-.871-2.308-1.477-3.644-1.753-.54-.111-1.07,.237-1.182,.777-.111,.541,.236,1.07,.777,1.182,1.015,.209,1.973,.67,2.77,1.332l2.147,1.784c1.001,.833,2.435,.96,3.568,.319,.626-.354,1.103-.905,1.366-1.554l2.811-.725c.324-.083,.661-.011,.926,.194,.263,.205,.414,.514,.414,.848,0,.462-.295,.872-.735,1.019Z"/>
  <path d="M14.743,10.186c.311,.246,1.544,1.2,3.021,1.2,1.643,0,2.98-1.147,3.374-1.495,1.219-1.073,1.845-2.254,1.862-3.512,.016-1.264-.61-2.301-1.202-2.849-.626-.581-1.449-.897-2.271-.862-.661,.027-1.276,.278-1.762,.712-.485-.435-1.101-.686-1.762-.712-.82-.037-1.645,.281-2.272,.862-.613,.569-1.25,1.642-1.199,2.948,.053,1.341,.797,2.589,2.211,3.708Zm.348-5.189c.396-.367,.816-.331,.83-.331,.227,.009,.419,.099,.572,.266l.535,.583c.379,.414,1.097,.413,1.475,0l.534-.583c.152-.167,.345-.256,.572-.266,.288-.007,.591,.109,.83,.331h0c.198,.184,.589,.704,.562,1.357-.064,1.504-1.819,2.53-2.249,2.771-.626,.352-1.345,.352-1.959,.008-.246-.144-2.262-1.267-2.262-2.733,0-.674,.355-1.212,.561-1.402Z"/>
</svg>
